<svg xmlns="http://www.w3.org/2000/svg" xmlns:xlink="http://www.w3.org/1999/xlink" width="536" height="313"><defs><path id="a" d="M0 0h477v10H0z"/><path id="c" d="M.11.06h7.778v7.778H.11z"/><path id="e" d="M0 312.94h480.5V1H0z"/></defs><g fill="none" fill-rule="evenodd" transform="translate(28)"><path fill="#47246A" d="M282.5 310.94c0 1.1-.9 2-2 2h-4c-1.1 0-2-.9-2-2s.9-2 2-2h4c1.1 0 2 .9 2 2m19 0c0 1.1-.9 2-2 2h-9c-1.1 0-2-.9-2-2s.9-2 2-2h9c1.1 0 2 .9 2 2m61 0c0 1.1-.9 2-2 2h-52c-1.1 0-2-.9-2-2s.9-2 2-2h52c1.1 0 2 .9 2 2m-247-56c0 1.1.9 2 2 2h20c1.1 0 2-.9 2-2v-5c0-1.1-.9-2-2-2h-20c-1.1 0-2 .9-2 2v5zm257-73c0 1.1.9 2 2 2h20c1.1 0 2-.9 2-2v-5c0-1.1-.9-2-2-2h-20c-1.1 0-2 .9-2 2v5zm-271 88c0 1.1.9 2 2 2h20c1.1 0 2-.9 2-2v-5c0-1.1-.9-2-2-2h-20c-1.1 0-2 .9-2 2v5zm83-105c0 1.1.9 2 2 2h20c1.1 0 2-.9 2-2v-5c0-1.1-.9-2-2-2h-20c-1.1 0-2 .9-2 2v5z"/><g transform="translate(0 287.94)"><mask id="b" fill="#fff"><use xlink:href="#a"/></mask><path fill="#47246A" d="M452.6 0H24.4C10.9 0 0 2.2 0 5s10.9 5 24.4 5h428.2c13.5 0 24.4-2.2 24.4-5s-10.9-5-24.4-5" mask="url(#b)"/></g><path fill="#FFF" d="M240.799 14.54a1.499 1.499 0 0 1-1.313-2.223l3.299-6a1.5 1.5 0 0 1 2.629 1.446l-3.3 6a1.498 1.498 0 0 1-1.315.777m-16.5 1.2a1.501 1.501 0 0 1-1.435-1.065l-2-6.6a1.5 1.5 0 0 1 2.872-.87l2 6.6a1.5 1.5 0 0 1-1.437 1.935"/><g transform="translate(359 .94)"><mask id="d" fill="#fff"><use xlink:href="#c"/></mask><path fill="#47246A" d="M.11 5.717L5.767.06l2.121 2.12-5.655 5.658z" mask="url(#d)"/></g><path fill="#FFC680" d="M346.092 69.165l2.122-2.121 5.657 5.657-2.122 2.12z"/><path fill="#4495D4" d="M341.111 36.656l5.655-5.657 2.122 2.12-5.655 5.658z"/><mask id="f" fill="#fff"><use xlink:href="#e"/></mask><path fill="#FFC680" d="M385.5 35.94h8v-3h-8z" mask="url(#f)"/><path fill="#6FBF5C" d="M310.5 18.94h3v-8h-3v8zm70.61 48.715l5.656-5.657 2.122 2.12-5.656 5.658-2.122-2.121z" mask="url(#f)"/><path fill="#47246A" d="M189.5 310.94c0 1.1-.9 2-2 2h-13c-1.1 0-2-.9-2-2s.9-2 2-2h13c1.1 0 2 .9 2 2zm-23 0c0 1.1-.9 2-2 2h-53c-1.1 0-2-.9-2-2s.9-2 2-2h53c1.1 0 2 .9 2 2zM369.276 93.767l1.149-2.771 7.39 3.062-1.148 2.772-7.391-3.063z" mask="url(#f)"/><path fill="#FFB652" d="M219.7 72.24l-9.6 1.9 4.4 26.8h-30.4c-3.6 0-6.5 2.9-6.5 6.5s2.9 6.5 6.5 6.5h36c3.6 0 6.5-2.9 6.5-6.5-.1-.5-6.9-35.2-6.9-35.2" mask="url(#f)"/><path fill="#CC872A" d="M202.5 107.44c0 3.6-2.9 6.5-6.5 6.5h-14c-3.6 0-6.5-2.9-6.5-6.5s2.9-6.5 6.5-6.5h14c3.6 0 6.5 2.9 6.5 6.5" mask="url(#f)"/><path fill="#DE5833" d="M104.2 140.34l3.3 7.3-14.8 6.1-2.9-7.1z" mask="url(#f)"/><path fill="#DE5833" d="M91.3 145.84c3-1.3 6.5.2 7.8 3.2 1.3 3-.2 6.5-3.2 7.8l-10.1 4.2c-3 1.3-6.5-.2-7.8-3.2-1.3-3 .2-6.5 3.2-7.8l10.1-4.2z" mask="url(#f)"/><path fill="#230545" d="M199.5 72.94c0 6.1-4.9 11-11 11h-10c-6.1 0-11-4.9-11-11s4.9-11 11-11h10c6.1 0 11 4.9 11 11" mask="url(#f)"/><path fill="#DE5833" d="M206.986 59.47l7.846-1.563 2.926 14.712-7.846 1.561z" mask="url(#f)"/><path fill="#DE5833" d="M216.8 47.34c-.6-3.2-3.8-5.3-7.1-4.7-3.2.6-5.4 3.8-4.7 7l2.2 10.8c.6 3.2 3.8 5.3 7 4.7 3.2-.6 5.4-3.8 4.7-7l-2.1-10.8z" mask="url(#f)"/><path fill="#FFB652" d="M198.494 117.915l-4.993-11.383c-1.198-3.096-4.992-5.592-8.287-5.592h-22.666c-3.993 0-7.988 3.995-7.988 8.488 0 2.496 0 3.494.5 4.992l12.481 30.554-3.994 3.994c-2.197 2.196-4.693 7.089-5.492 10.983-.799 3.894-1.498 6.989-1.498 6.989H194.5v-36.843c3.794-2.597 4.993-7.69 3.994-12.182" mask="url(#f)"/><path fill="#FFF" d="M162.6 100.94l7.8 7.9c1.2 1.2 3.4 2.1 5.1 2.1h4.8c1.6 0 3.2-1.3 3.2-3v-7" mask="url(#f)"/><path fill="#230545" d="M191.5 75.64c0 10.1-8.2 18.3-18.3 18.3h-2.4c-10.1 0-18.3-8.2-18.3-18.3v-.4c0-10.1 8.2-18.3 18.3-18.3h2.4c10.1 0 18.3 8.2 18.3 18.3v.4z" mask="url(#f)"/><path fill="#230545" d="M157.5 75.44c0-6.1-5-11.1-11-11.1s-11 4.6-11 11v5.9c0 5.9-4.7 10.7-10.3 10.7h-4.7c0 8 6.4 9 9.7 9h9.5c9.3 0 17.8-7.9 17.8-17.4v-8.1z" mask="url(#f)"/><path fill="#DE5833" d="M187.3 68.94h-7.4c-4 0-7.4 3.5-7.4 7.6v3.4h-.1c-.6-1.3-1.9-2.2-3.4-2.2-2 0-3.7 1.6-3.7 3.7 0 1.9 1.4 3.4 3.2 3.6v15.9c0 2.2 1.8 4 4 4h5c2.2 0 4-1.8 4-4v-5h3.2c5.39 0 9.8-4.41 9.8-9.8v-9.6c.1-4.1-3.2-7.6-7.2-7.6" mask="url(#f)"/><path fill="#FFF" d="M177.5 86.94v1c0 2.2 1.9 4 4.1 4h1.8c2.2 0 4.1-1.7 4.1-4v-1h-10z" mask="url(#f)"/><path fill="#FFB652" d="M164.7 104.74c-2.5-2.5-6.7-2.5-9.2 0l-26.1 25.4-26.6 11 4.4 10.7 31.4-12.9c.2-.1.5-.2.7-.3.8-.3 1.6-.8 2.3-1.5l23.1-23.1c2.5-2.6 2.5-6.7 0-9.3" mask="url(#f)"/><path fill="#230545" d="M192.5 77.699c0 .724-.621 1.24-1.241 1.24h-.518c-.724 0-1.241-.62-1.241-1.24v-.518c0-.723.621-1.241 1.241-1.241h.518c.724 0 1.241.62 1.241 1.24v.519zm-9 0c0 .724-.621 1.24-1.241 1.24h-.518c-.724 0-1.241-.62-1.241-1.24v-.518c0-.723.621-1.241 1.241-1.241h.518c.724 0 1.241.62 1.241 1.24v.519zm-27 89.241l-10.1 48 16.4 4 17.9-52z" mask="url(#f)"/><path fill="#230545" d="M162.3 209.94l-28.8-29-8 8 18.8 25h10.2z" mask="url(#f)"/><path fill="#6FBF5C" d="M114.6 194.04c-4.3 2-8.3 2.6-11.9-.9l21.3-21.3 9.4 9.2-8 8-10.8 5zm6.4 38.3c-2.4 4-5.5 6.8-10.4 5.8l6.3-31.5 12.8 2.5-2.5 12.8-6.2 10.4z" mask="url(#f)"/><path fill="#230545" d="M156.5 166.84v20.1h15.98l-2.613 30.452-40.402-8.04-2.513 12.864 50.452 14.171c4.322.904 8.543-2.01 9.448-6.332l7.839-63.115H156.5v-.1z" mask="url(#f)"/><path fill="#FFF" d="M209.699 24.44c-.244 0-.492-.06-.721-.186l-6-3.299a1.5 1.5 0 0 1 1.445-2.629l6 3.3a1.5 1.5 0 0 1-.724 2.814" mask="url(#f)"/><path fill="#FFB464" d="M99.117 119.657l5.656-5.658 2.122 2.12-5.656 5.659z" mask="url(#f)"/><path fill="#4495D4" d="M164.5 25.94h8v-3h-8z" mask="url(#f)"/><path fill="#6FBF5C" d="M63.5 64.94h3v-8h-3z" mask="url(#f)"/><path fill="#FFC680" d="M131.697 50.707l5.657-5.656 2.12 2.12-5.656 5.657-2.121-2.121zm-38.022.506l2.122-2.121 5.656 5.656-2.122 2.12-5.656-5.655z" mask="url(#f)"/><path fill="#4495D4" d="M80.285 85.762l1.148-2.77 7.391 3.061-1.148 2.772z" mask="url(#f)"/><path fill="#47246A" d="M118.284 19.763l1.148-2.77 7.39 3.061-1.148 2.772z" mask="url(#f)"/><path fill="#CC872A" d="M186.5 129.94h-6c-1.7 0-3 1-3 3h12c0-2-1.3-3-3-3" mask="url(#f)"/><path fill="#FFF" d="M126 173.64l-1.9-1.9-21.3 21.3c.7.7 1.4 1.2 2.2 1.6l21-21zm-6.2 33.6l-3-.6-6.3 31.5c1.1.2 2.1.2 3.1.1l6.2-31z" mask="url(#f)"/><path fill="#47246A" d="M68.514 239.578c0-4.294 3.253-4.294 3.253-9.386 0-5.89-5.52-6.69-5.52-11.782 0-2.895 3.253-5.99 3.253-9.386v-.1c0-5.191-4.634-9.984-9.86-9.984H57.5c-5.5 0-10 4.5-10 10v.084c0 3.396 3.253 6.49 3.253 9.386 0 5.093-5.52 5.792-5.52 11.782 0 4.992 3.253 4.992 3.253 9.386-.099 5.89-7.986 6.29-7.986 14.278v.599c0 2.796 1.183 5.392 3.155 7.089 1.676 1.498 3.845 2.396 6.211 2.396H56.5v5H45.4c-.7 1.493-1.2 2.788-1.5 4.282-.3 1.195-.4 2.588-.4 3.882V278c.2 5.576 2.9 10.156 7.1 13.939h14.8c4.2-3.783 6.9-8.263 7.1-13.84v-.796c0-1.294-.1-2.688-.4-3.883-.2-1.693-.7-2.988-1.4-4.481H60.5v-5h6.535c2.366 0 4.535-.898 6.211-2.396 1.972-1.697 3.155-4.293 3.155-7.09.1-.2.1-.3.1-.398v-.2c0-7.988-7.888-8.288-7.987-14.278M429.5 266.94c3 0 7-2 7-7.5 0-3.5-2-6.5-4-8.5-2.4-2.4-4.3-4.7-4.3-8.5 0-2.9 3.3-6 3.3-9.4v-.1c0-5.2-4.6-10-10-10h-4c-5.5 0-10 4.5-10 10v.1c0 3.4 3.3 6.5 3.3 9.4 0 3.8-2 6.2-4.3 8.5-2 2-4 5-4 8.5 0 5.5 4 7.5 6.5 7.5h8.5v5h-10.1c-.7 1.493-1.2 2.788-1.5 4.281-.3 1.196-.4 2.589-.4 3.883v.897c.2 5.576 2.9 10.156 7.1 13.939h14.8c4.2-3.783 6.9-8.264 7.1-13.84v-.96c0-1.3-.104-2.7-.416-3.9-.312-1.5-.832-2.8-1.56-4.3H421.5v-5h8z" mask="url(#f)"/><path fill="#FFC680" d="M277.5 26.44c.7-3.5-1.5-7-5.1-7.7-3.6-.7-6.9 1.6-7.6 5.1l-2.4 11.9c-.7 3.5 1.5 7 5.1 7.7 3.6.7 6.9-1.6 7.6-5.1l2.4-11.9z" mask="url(#f)"/><path fill="#6FBF5C" d="M322.5 98.94c-2.1-2.1-6.4-4-9.7-4H295c-2.3 0-4.4.5-6.3 1.5l-10.6-10.6-10.1 10.1 12.3 12.2.3.3c0 .3-.1.7-.1 1v55.5h43v-44l7 6 10-10-18-18z" mask="url(#f)"/><path fill="#FFC680" d="M257.5 79.94c-1 5 .6 5.9 1.3 6.7l9.2 9.3 10.1-10.1-10.1-9.7 7.3-38.6-9.8-2-8 44.4zm39.9-25h-3.8a9.1 9.1 0 0 0-9.1 9.1v14.6a9.3 9.3 0 0 0 9.3 9.3h3.7c5.5 0 10-4.5 10-10v-12.9c0-5.555-4.545-10.1-10.1-10.1" mask="url(#f)"/><path fill="#230545" d="M315.5 82.44c0 3-2.5 5.5-5.5 5.5s-5.5-2.5-5.5-5.5v-2c0-3 2.5-5.5 5.5-5.5s5.5 2.5 5.5 5.5v2z" mask="url(#f)"/><path fill="#FFC680" d="M294.5 71.94v24c0 2.8 2.2 5 5 5h6c2.8 0 5-2.2 5-5v-24h-16z" mask="url(#f)"/><path fill="#230545" d="M308.5 71.04v6.11c0 2.366 1.407 4.589 3.641 5.369 3.749 1.309 7.359-1.574 7.359-5.178v-7c1-1.5 2-3.401 2-5.601v-6.6c0-4.5-3.7-8.2-8.2-8.2-1.5 0-3 .4-4.2 1.2l-.6-.5c-1.1-1.3-4-2.7-7.1-2.7h-14.5c-3.2 0-5.6 2-5.8 5h-.184c-3.009 0-5.416 2.7-5.416 5.6v.2a5.2 5.2 0 0 0 5.2 5.2h9.144c2.106 0 3.911-1.1 4.814-2.9 2.608 4.1 6.019 6.2 10.933 6.9l2.909 3.1z" mask="url(#f)"/><path fill="#FFC680" d="M309.4 66.24a4.4 4.4 0 0 1 4.4 4.4 4.4 4.4 0 1 1-8.8 0 4.4 4.4 0 0 1 4.4-4.4" mask="url(#f)"/><path fill="#230545" d="M301.5 64.94v7.4c0 3-2.514 4.6-5.429 4.6H285.3a2.8 2.8 0 0 0-2.8 2.8v1.9c0 5.9 3.82 10.3 9.249 10.3h5.136c5.192 0 9.615-4.5 9.615-10.3v-16.7h-5z" mask="url(#f)"/><path fill="#FFF" d="M288.5 82.94v.7c0 2.2 2.1 3.3 4.2 3.3h1.8c2.2 0 4-1.2 4-3.3v-.7h-10z" mask="url(#f)"/><path fill="#230545" d="M295.5 69.699c0 .724-.621 1.24-1.241 1.24h-.518c-.723 0-1.241-.62-1.241-1.24v-.518c0-.723.621-1.241 1.241-1.241h.518c.723 0 1.241.62 1.241 1.24v.519zm-9 0c0 .724-.621 1.24-1.241 1.24h-.518c-.723 0-1.241-.62-1.241-1.24v-.518c0-.723.621-1.241 1.241-1.241h.518c.723 0 1.241.62 1.241 1.24v.519z" mask="url(#f)"/><path fill="#FFC680" d="M353.5 135.74c0-4.8-1.3-6.5-3.7-8.9l-9.3-9.9-10 10 13 13.2v25.3c-2 1.1-4 3.3-4 5.7v12.2c0 3.6 3.5 6.6 7.1 6.6 3.7 0 6.9-3.8 6.9-7.5v-46.7z" mask="url(#f)"/><path fill="#DE5833" d="M358.3 229.34c2.8 4.6 6.2 7.7 11.8 6.6l-6.6-33.4-14.6 2.7 2.4 12.5 7 11.6zm-19.8 37.2c0 5.3.5 9.9 5.1 11.9l14-33.7-13.3-5.3-5.8 13.7v13.4z" mask="url(#f)"/><path fill="#230545" d="M298.3 220.14l2.7-19.2 3.5 21.8-6.2-2.6zm53-2.4l-2.4-12.5-25.4 5v-45.3h-43v62c.3 3.3 1.8 6.4 5 7.7l53 18.4 5.8-13.7-25.1-10.5 32.1-11.1z" mask="url(#f)"/><path fill="#FFF" d="M363.5 202.54l-3.2.6 6.6 32.9c1 .1 2.1.1 3.3-.1l-6.7-33.4zm-9 40.8l-13.7 33c.7.8 1.6 1.5 2.8 2l14-33.7-3.1-1.3z" mask="url(#f)"/><path fill="#5A9C4B" d="M321 120.94c-3.6 0-6.5 2.9-6.5 6.5v37.5h9v-44H321z" mask="url(#f)"/><path fill="#FFF" d="M259.5 255.94v4c0 1.5-1 3-2.6 3 .8 1.8 2.5 3 4.6 3 2.8 0 5-2.2 5-5s-2.2-5-5-5h-2z" mask="url(#f)"/><path fill="#230545" d="M240.5 262.94h-38.4c-11 0-20.2 8-20.2 20 0 1.736.214 3.4.567 5H240.5v-25z" mask="url(#f)"/><path fill="#47246A" d="M185.5 286.94c0-12 9.167-20 20.348-20H240.5v-5h-39.4c-11 0-20.2 8-20.2 20 0 2.1.3 4.1.8 6h3.8v-1z" mask="url(#f)"/><path fill="#230545" d="M234.5 282.94h-9c-2.8 0-5 2.2-5 5h29v-5h-4c-3 0-5-2.6-5-6 0-.2-6 6-6 6" mask="url(#f)"/><path fill="#FFF" d="M255.5 282.94h-6v5h11c0-2.8-2.2-5-5-5" mask="url(#f)"/><path fill="#230545" d="M205.5 282.94c-2.8 0-5 2.2-5 5h29v-5h-24z" mask="url(#f)"/><path fill="#FFF" d="M235.5 282.94h-6v5h11c0-2.8-2.2-5-5-5" mask="url(#f)"/><path fill="#230545" d="M240.5 251.94h-14l-7-7v13c0 7.2 5.8 13 13 13h2c7.2 0 13-5.8 13-13v-13l-7 7z" mask="url(#f)"/><path fill="#FFF" d="M243.5 257.44c0-.8-.7-1.5-1.5-1.5s-1.5.7-1.5 1.5.7 1.5 1.5 1.5 1.5-.7 1.5-1.5m-11 0c0-.8-.7-1.5-1.5-1.5s-1.5.7-1.5 1.5.7 1.5 1.5 1.5 1.5-.7 1.5-1.5m1-22.5l-3.5 8.5 5-5z" mask="url(#f)"/><path fill="#DE5833" d="M230 243.44l-3.5 8.5 9.9-9.9-1.4-3.6z" mask="url(#f)"/><path fill="#FFF" d="M236.4 242.04l-9.9 9.9h5l6.4-6.4z" mask="url(#f)"/><path fill="#DE5833" d="M237.9 245.54l-6.4 6.4h9z" mask="url(#f)"/><path fill="#FFF" d="M261 262.94h-10.5v3H261c.8 0 1.5-.7 1.5-1.5s-.7-1.5-1.5-1.5" mask="url(#f)"/><path fill="#FFB652" d="M244 262.94c-.8 0-1.5.7-1.5 1.5s.7 1.5 1.5 1.5h6.5v-3H244z" mask="url(#f)"/><path fill="#FFF" d="M260.5 247.94a1 1 0 0 1-1-1v-3a1 1 0 1 1 2 0v3a1 1 0 0 1-1 1m10 4a.999.999 0 0 1-.707-1.707l2-2a.999.999 0 1 1 1.414 1.414l-2 2a.997.997 0 0 1-.707.293m7 10h-3a1 1 0 1 1 0-2h3a1 1 0 1 1 0 2m-80 36c1.7 0 3-1.3 3-3s-1.3-3-3-3h-7v6h7z" mask="url(#f)"/><path fill="#230545" d="M178.7 287.94h17.8v-6h-18c-4.3 0-5.8 2.1-6.3 3.3-.5 1.2-.9 3.8 2.1 6.8l.1.1c3.3 3.3 9.4 5.8 14.1 5.8h2v-6h-2c-3.1 0-7.7-1.854-9.8-4" mask="url(#f)"/><path fill="#FFF" d="M207.5 282.94h-6v5h11c0-2.8-2.2-5-5-5" mask="url(#f)"/><path fill="#47246A" d="M444 147.34c-24-1.8-46.8-9.6-68-23.4l-1.1 1.7c6.2 4 12.5 7.5 19 10.5-.1.6-.3 1.4-.6 2.5-.4 2-1 4.6-1.4 7.3-.9 5.3-1.6 10.8-1.6 10.8s.9-1 2.3-2.5 3.2-3.5 4.9-5.6c2.9-3.5 5.7-7 6.5-8.1.7.3 1.4.5 2.1.8 0 .7-.4 5.7-.5 10.8-.1 2.8 0 5.4 0 7.5.1 2 .1 3.4.1 3.4s3.1-4.5 5.9-9.1c1.4-2.3 2.8-4.6 3.8-6.4.7-1.3 1.2-2.2 1.5-2.7 5.9 1.6 11.8 2.8 17.9 3.6.2 1.5.8 5.8 1.6 10.1 1 5.3 2.2 10.7 2.2 10.7s2.2-5 4-10.1c1.5-4 2.9-8.1 3.4-9.6 1.2.1 2.4.1 3.5.2.4 1.6 1.4 5.7 2.5 9.9.7 2.6 1.5 5.3 2.1 7.2.6 1.9 1 3.2 1 3.2s1.7-5.2 3.1-10.5c1.2-4.2 2.2-8.4 2.5-9.9 1.2-.1 2.3-.1 3.5-.2.5 1.4 1.9 5.5 3.5 9.7 1.9 5.1 4.1 10.1 4.1 10.1s.3-1.3.7-3.3c.4-2 1-4.7 1.5-7.3.8-4.5 1.5-9 1.7-10.3a88.903 88.903 0 0 0 4.8-.727v-2.122c-12.378 2.1-24.574 2.701-36.5 1.85" mask="url(#f)"/><path fill="#FFF" d="M427.5 188.94h-2v-11.7c0-2.548-.739-4.304-1.521-6.162-.826-1.959-1.679-3.986-1.679-6.938 0-2.946.826-4.971 1.624-6.928.76-1.861 1.476-3.619 1.476-6.172 0-2.548-.739-4.304-1.521-6.163-.825-1.958-1.679-3.985-1.679-6.937 0-2.958.881-4.986 1.733-6.948.805-1.856 1.567-3.61 1.567-6.152 0-2.559-.694-4.319-1.43-6.183-.772-1.955-1.57-3.977-1.57-6.917v-6.8h2v6.8c0 2.559.694 4.319 1.43 6.183.772 1.955 1.57 3.977 1.57 6.917 0 2.958-.881 4.987-1.732 6.949-.806 1.855-1.568 3.609-1.568 6.151 0 2.548.739 4.304 1.522 6.162.825 1.959 1.678 3.985 1.678 6.938 0 2.946-.826 4.97-1.624 6.927-.759 1.862-1.476 3.619-1.476 6.173 0 2.548.739 4.304 1.521 6.162.825 1.959 1.679 3.986 1.679 6.938v11.7z" mask="url(#f)"/><path fill="#C5D3DC" d="M423.5 52.54c-11.6 0-20 8.4-20 20v2.2c0 8.4 4.2 12.6 8.4 16.8l9.5 9.4h-.4c-1.4 0-2.5 1.1-2.5 2.5s1.1 2.5 2.5 2.5h6c1.4 0 2.5-1.1 2.5-2.5s-1.1-2.5-2.5-2.5h-1.4l9.5-9.4c4.2-4.2 8.4-8.4 8.4-16.8v-2.2c0-11.6-8.4-20-20-20" mask="url(#f)"/><path fill="#FFF" d="M422.9 95.54c-4.2-4.2-8.4-8.4-8.4-16.8v-4.2c0-11.6 8.4-18 20-18 .5 0 1 0 1.5.1-3.4-2.6-7.6-4.1-12.5-4.1-11.6 0-20 8.4-20 20v2.2c0 8.4 4.2 12.6 8.4 16.8l9.5 9.4h4.2l1.4-1.4-4.1-4z" mask="url(#f)"/><path fill="#FFF" d="M436.5 68.94c0 1.7-1.1 3-2.5 3s-2.5-1.3-2.5-3v-2c0-1.7 1.1-3 2.5-3s2.5 1.3 2.5 3v2z" mask="url(#f)"/><path fill="#C5D3DC" d="M37.5 168.94c0-8.7-6.3-15-15-15s-15 6.3-15 15v3.2c0 6.3 3.2 9.5 6.3 12.7l7.1 7.1h3.2l7.1-7.1c3.2-3.2 6.3-6.3 6.3-12.7v-3.2z" mask="url(#f)"/><path fill="#FFF" d="M25.9 249.14h-2c0-1.849-.545-3.143-1.122-4.513-.628-1.492-1.278-3.035-1.278-5.287 0-2.244.622-3.785 1.223-5.274.553-1.373 1.077-2.67 1.077-4.527 0-1.847-.545-3.14-1.122-4.51-.628-1.493-1.278-3.037-1.278-5.289s.65-3.795 1.278-5.288c.577-1.37 1.122-2.665 1.122-4.512 0-1.856-.524-3.153-1.077-4.526-.601-1.49-1.223-3.03-1.223-5.274v-5.2h2v5.2c0 1.855.524 3.152 1.077 4.525.6 1.491 1.223 3.031 1.223 5.275 0 2.252-.65 3.795-1.278 5.288-.577 1.37-1.122 2.664-1.122 4.512 0 1.848.545 3.142 1.122 4.512.628 1.492 1.278 3.035 1.278 5.287 0 2.245-.622 3.786-1.223 5.275-.553 1.373-1.077 2.67-1.077 4.526 0 1.848.545 3.142 1.122 4.511.628 1.493 1.278 3.037 1.278 5.29m-3.4-95.201c1 0 2 .1 3 .3-7.1 1.3-12 7.1-12 14.7v3.2c0 6.3 3.2 9.5 6.3 12.7l5.7 5.7-1.4 1.4h-3.2l-7.1-7.1c-3.2-3.2-6.3-6.3-6.3-12.7v-3.2c0-8.6 6.3-15 15-15" mask="url(#f)"/><path fill="#C5D3DC" d="M26.5 193.84c0-1-.8-1.9-1.9-1.9h-4.2c-1 0-1.9.8-1.9 1.9v.2c0 1 .8 1.9 1.9 1.9h4.2c1 0 1.9-.8 1.9-1.9v-.2z" mask="url(#f)"/><path fill="#FFF" d="M31.5 168.94c0 1.1-.9 2-2 2s-2-.9-2-2v-1c0-1.1.9-2 2-2s2 .9 2 2v1z" mask="url(#f)"/><path fill="#47246A" d="M52.9 107.14c-.2-.8-.4-1.5-.5-2a134.474 134.474 0 0 0 10.729-6.087l-.881-1.318c-15.508 9.82-32.165 15.773-49.748 17.605-3.3.3-6.7.5-10.1.6l-.2 1.6c2.9 0 5.7-.2 8.6-.4.4 1.2 1.6 4.4 2.9 7.6 1.6 4 3.5 8 3.5 8s.9-4.3 1.5-8.6c.5-3.4.9-6.9 1.1-8.1 4.8-.8 9.6-1.9 14.2-3.3.2.4.7 1.1 1.3 2.1.8 1.4 2 3.2 3.2 5 2.4 3.6 5 7.2 5 7.2v-2.7c0-1.6-.1-3.8-.2-6-.2-4.1-.6-8.1-.6-8.6.6-.2 1.1-.4 1.7-.7.7.9 3 3.6 5.4 6.4 1.5 1.6 2.9 3.2 4.1 4.4l1.9 1.9s-.6-4.4-1.5-8.6c-.6-2.3-1-4.4-1.4-6" mask="url(#f)"/></g></svg>