<svg width="170" height="50" viewBox="0 0 170 50" fill="none" xmlns="http://www.w3.org/2000/svg">
<path d="M158.055 2.15072e-06H11.9518C11.4921 2.15072e-06 11.038 2.15066e-06 10.5796 0.00250215C10.1958 0.00500215 9.81509 0.0122646 9.42764 0.0183771C8.58593 0.0282544 7.74619 0.102097 6.91573 0.239265C6.08644 0.379418 5.28313 0.643647 4.53296 1.02301C3.78372 1.40559 3.09911 1.90271 2.50397 2.49634C1.90571 3.0883 1.40702 3.77252 1.02706 4.5227C0.646059 5.27139 0.38187 6.07368 0.243619 6.90185C0.104055 7.72898 0.028954 8.56565 0.0189907 9.40435C0.0073581 9.7876 0.00612966 10.1721 0 10.5554V39.4482C0.00612966 39.8364 0.0073581 40.2124 0.0189907 40.6006C0.0289571 41.4393 0.104058 42.2759 0.243619 43.103C0.381488 43.9317 0.645693 44.7344 1.02706 45.4834C1.40685 46.2311 1.90561 46.9126 2.50397 47.5013C3.09685 48.0975 3.7819 48.595 4.53296 48.9746C5.28312 49.355 6.08635 49.6208 6.91573 49.7631C7.74633 49.8992 8.58598 49.9731 9.42764 49.9841C9.81509 49.9926 10.1958 49.9975 10.5796 49.9975C11.038 50 11.4922 50 11.9518 50H158.055C158.505 50 158.963 50 159.414 49.9975C159.796 49.9975 160.187 49.9926 160.569 49.9841C161.409 49.9737 162.247 49.8998 163.076 49.7631C163.908 49.6198 164.715 49.3541 165.468 48.9746C166.219 48.5948 166.903 48.0973 167.495 47.5013C168.092 46.9103 168.592 46.2293 168.977 45.4834C169.355 44.7339 169.617 43.9312 169.753 43.103C169.892 42.2758 169.97 41.4394 169.985 40.6006C169.99 40.2124 169.99 39.8364 169.99 39.4482C170 38.9941 170 38.5425 170 38.081V11.9202C170 11.4624 170 11.0083 169.99 10.5554C169.99 10.1721 169.99 9.7876 169.985 9.4043C169.97 8.56553 169.892 7.72905 169.753 6.9018C169.616 6.0741 169.355 5.27188 168.977 4.52265C168.203 3.019 166.976 1.79503 165.468 1.0229C164.715 0.644461 163.908 0.380303 163.076 0.239152C162.248 0.101381 161.409 0.0275119 160.569 0.0182022C160.187 0.0121022 159.796 0.00477715 159.414 0.00233965C158.963 -0.000160349 158.505 2.15072e-06 158.055 2.15072e-06Z" fill="#A6A6A6"/>
<path d="M10.5857 48.9062C10.2038 48.9062 9.83109 48.9014 9.45217 48.8929C8.6672 48.8827 7.88406 48.8145 7.10919 48.689C6.38665 48.5649 5.68671 48.3341 5.03245 48.0041C4.38418 47.6769 3.79292 47.2478 3.2813 46.7334C2.76227 46.225 2.33015 45.6353 2.00208 44.9878C1.67038 44.336 1.44083 43.6374 1.32142 42.9163C1.19247 42.1414 1.1227 41.3579 1.11271 40.5725C1.10476 40.3089 1.09436 39.4311 1.09436 39.4311V10.5554C1.09436 10.5554 1.10544 9.69116 1.11277 9.43725C1.12233 8.6531 1.1917 7.87082 1.32027 7.09716C1.4399 6.37406 1.66963 5.67344 2.0015 5.01954C2.32837 4.37243 2.75809 3.78233 3.27399 3.2721C3.78931 2.75703 4.38247 2.32576 5.03183 1.99401C5.68459 1.66512 6.38321 1.43592 7.10428 1.31409C7.88171 1.1873 8.66756 1.11875 9.45525 1.10901L10.5863 1.09375H159.408L160.552 1.10963C161.333 1.11887 162.111 1.18681 162.882 1.31286C163.61 1.43622 164.316 1.66702 164.976 1.99768C166.277 2.66623 167.336 3.72395 168.003 5.02259C168.33 5.67197 168.556 6.36688 168.674 7.08374C168.804 7.86374 168.877 8.65217 168.892 9.44275C168.896 9.79675 168.896 10.177 168.896 10.5554C168.906 11.0242 168.906 11.4703 168.906 11.9202V38.081C168.906 38.5351 168.906 38.9783 168.896 39.425C168.896 39.8315 168.896 40.2039 168.891 40.5871C168.876 41.3636 168.805 42.138 168.677 42.904C168.56 43.6303 168.331 44.3344 168 44.9915C167.669 45.632 167.24 46.2166 166.727 46.7236C166.215 47.2409 165.622 47.6724 164.973 48.0018C164.314 48.3342 163.609 48.5659 162.882 48.689C162.107 48.8152 161.324 48.8834 160.539 48.8929C160.172 48.9014 159.787 48.9062 159.414 48.9062L158.055 48.9087L10.5857 48.9062Z" fill="black"/>
<path d="M59.275 12.8002C59.2955 13.2586 59.2231 13.7164 59.0619 14.1461C58.9008 14.5757 58.6544 14.9683 58.3375 15.3002C57.9824 15.6668 57.5539 15.9543 57.08 16.1439C56.6061 16.3334 56.0975 16.4208 55.5875 16.4002C55.0746 16.4116 54.5648 16.3177 54.0896 16.1242C53.6144 15.9307 53.184 15.6417 52.825 15.2752C52.4547 14.9158 52.1625 14.4839 51.9668 14.0064C51.771 13.5289 51.676 13.0161 51.6875 12.5002C51.6742 11.9822 51.7685 11.4671 51.9642 10.9873C52.16 10.5075 52.4531 10.0735 52.825 9.71271C53.3819 9.16857 54.0872 8.80113 54.8522 8.65657C55.6173 8.51201 56.408 8.59678 57.125 8.90021C57.5758 9.0855 57.9778 9.37207 58.3 9.73771L57.6375 10.4002C57.3893 10.1012 57.0748 9.86413 56.7189 9.7079C56.363 9.55168 55.9757 9.48056 55.5875 9.50021C55.1971 9.4983 54.8103 9.57525 54.4503 9.72645C54.0903 9.87765 53.7645 10.1 53.4926 10.3801C53.2206 10.6603 53.008 10.9925 52.8675 11.3568C52.727 11.7211 52.6615 12.11 52.675 12.5002C52.6668 13.0829 52.8314 13.6549 53.1479 14.1442C53.4645 14.6334 53.9188 15.018 54.4537 15.2493C54.9885 15.4806 55.5799 15.5483 56.1532 15.444C56.7265 15.3396 57.256 15.0677 57.675 14.6627C58.0605 14.2453 58.2862 13.7053 58.3125 13.1377H55.5875V12.2377H59.225C59.253 12.424 59.2697 12.6119 59.275 12.8002Z" fill="white" stroke="white" stroke-width="0.2" stroke-miterlimit="10"/>
<path d="M65 9.675H61.625V12.05H64.7V12.95H61.625V15.325H65V16.25H60.65V8.75H65V9.675Z" fill="white" stroke="white" stroke-width="0.2" stroke-miterlimit="10"/>
<path d="M69.1 16.25H68.1375V9.675H66.0375V8.75H71.25V9.675H69.1V16.25Z" fill="white" stroke="white" stroke-width="0.2" stroke-miterlimit="10"/>
<path d="M74.925 16.25V8.75H75.8875V16.25H74.925Z" fill="white" stroke="white" stroke-width="0.2" stroke-miterlimit="10"/>
<path d="M80.1625 16.25H79.2V9.675H77.1V8.75H82.25V9.675H80.1625V16.25Z" fill="white" stroke="white" stroke-width="0.2" stroke-miterlimit="10"/>
<path d="M92.0125 15.2752C91.6515 15.6365 91.2228 15.9231 90.7509 16.1187C90.2791 16.3143 89.7733 16.4149 89.2625 16.4149C88.7517 16.4149 88.2459 16.3143 87.7741 16.1187C87.3022 15.9231 86.8735 15.6365 86.5125 15.2752C86.1489 14.9126 85.8637 14.4792 85.6745 14.0018C85.4853 13.5245 85.3961 13.0134 85.4125 12.5002C85.3961 11.987 85.4853 11.4759 85.6745 10.9985C85.8637 10.5212 86.1489 10.0878 86.5125 9.72518C86.8657 9.35368 87.293 9.06047 87.7668 8.86453C88.2405 8.66858 88.75 8.57427 89.2625 8.58768C89.7742 8.57958 90.2822 8.67633 90.7552 8.87196C91.2281 9.06758 91.656 9.35795 92.0125 9.72518C92.3719 10.0908 92.6545 10.5247 92.8434 11.0013C93.0323 11.478 93.1238 11.9876 93.1125 12.5002C93.1289 13.0134 93.0397 13.5245 92.8505 14.0018C92.6613 14.4792 92.3761 14.9126 92.0125 15.2752ZM87.225 14.6502C87.4913 14.92 87.8085 15.1343 88.1583 15.2805C88.5081 15.4268 88.8834 15.5021 89.2625 15.5021C89.6416 15.5021 90.017 15.4268 90.3667 15.2805C90.7165 15.1343 91.0337 14.92 91.3 14.6502C91.5769 14.3665 91.7938 14.0299 91.9377 13.6605C92.0816 13.2911 92.1495 12.8964 92.1375 12.5002C92.143 12.1004 92.0672 11.7036 91.9146 11.334C91.762 10.9644 91.5359 10.6297 91.25 10.3502C90.9837 10.0803 90.6665 9.86607 90.3167 9.71983C89.9669 9.57358 89.5916 9.49828 89.2125 9.49828C88.8334 9.49828 88.4581 9.57358 88.1083 9.71983C87.7585 9.86607 87.4413 10.0803 87.175 10.3502C86.9071 10.638 86.6994 10.9764 86.5641 11.3457C86.4289 11.7149 86.3688 12.1074 86.3875 12.5002C86.3755 12.8964 86.4434 13.2911 86.5873 13.6605C86.7312 14.0299 86.9481 14.3665 87.225 14.6502Z" fill="white" stroke="white" stroke-width="0.2" stroke-miterlimit="10"/>
<path d="M94.475 16.25V8.75H95.6375L99.2875 14.5875V13.1375V8.75H100.25V16.25H99.25L95.4375 10.1375V11.575V16.25H94.475Z" fill="white" stroke="white" stroke-width="0.2" stroke-miterlimit="10"/>
<path d="M85.175 27.1874C84.1218 27.1899 83.093 27.5046 82.2187 28.0918C81.3444 28.6789 80.6638 29.5122 80.2631 30.4862C79.8623 31.4601 79.7594 32.531 79.9673 33.5635C80.1752 34.596 80.6846 35.5436 81.431 36.2866C82.1775 37.0295 83.1275 37.5344 84.1609 37.7375C85.1943 37.9405 86.2648 37.8326 87.2368 37.4272C88.2089 37.0219 89.039 36.3375 89.622 35.4604C90.2051 34.5833 90.515 33.5531 90.5125 32.4999C90.5227 31.7973 90.3914 31.0999 90.1265 30.4491C89.8615 29.7983 89.4683 29.2075 88.9703 28.7118C88.4723 28.2161 87.8796 27.8257 87.2276 27.5638C86.5756 27.3019 85.8775 27.1739 85.175 27.1874ZM85.175 35.7249C84.5295 35.77 83.8853 35.6199 83.3262 35.2941C82.7671 34.9683 82.319 34.4818 82.04 33.8979C81.7611 33.314 81.6642 32.6597 81.7621 32.0201C81.8599 31.3804 82.148 30.785 82.5887 30.3112C83.0295 29.8374 83.6025 29.5071 84.2335 29.3634C84.8644 29.2196 85.524 29.2689 86.1265 29.505C86.729 29.7411 87.2466 30.1529 87.6119 30.687C87.9772 31.2211 88.1734 31.8528 88.175 32.4999C88.1951 32.9099 88.133 33.3198 87.9922 33.7054C87.8514 34.091 87.6348 34.4445 87.3552 34.7451C87.0756 35.0457 86.7386 35.2872 86.3642 35.4555C85.9897 35.6238 85.5854 35.7154 85.175 35.7249ZM73.525 27.1874C72.4718 27.1899 71.443 27.5046 70.5687 28.0918C69.6944 28.6789 69.0138 29.5122 68.6131 30.4862C68.2123 31.4601 68.1094 32.531 68.3173 33.5635C68.5252 34.596 69.0346 35.5436 69.781 36.2866C70.5275 37.0295 71.4775 37.5344 72.5109 37.7375C73.5443 37.9405 74.6148 37.8326 75.5868 37.4272C76.5589 37.0219 77.389 36.3375 77.972 35.4604C78.5551 34.5833 78.865 33.5531 78.8625 32.4999C78.8727 31.7973 78.7414 31.0999 78.4765 30.4491C78.2115 29.7983 77.8183 29.2075 77.3203 28.7118C76.8223 28.2161 76.2296 27.8257 75.5776 27.5638C74.9256 27.3019 74.2275 27.1739 73.525 27.1874ZM73.525 35.7249C72.8795 35.77 72.2353 35.6199 71.6762 35.2941C71.1171 34.9683 70.669 34.4818 70.39 33.8979C70.1111 33.314 70.0142 32.6597 70.1121 32.0201C70.2099 31.3804 70.498 30.785 70.9387 30.3112C71.3794 29.8374 71.9525 29.5071 72.5835 29.3634C73.2144 29.2196 73.874 29.2689 74.4765 29.505C75.079 29.7411 75.5966 30.1529 75.9619 30.687C76.3272 31.2211 76.5234 31.8528 76.525 32.4999C76.5451 32.9099 76.483 33.3198 76.3422 33.7054C76.2014 34.091 75.9848 34.4445 75.7052 34.7451C75.4256 35.0457 75.0886 35.2872 74.7142 35.4555C74.3397 35.6238 73.9354 35.7154 73.525 35.7249ZM59.675 28.8249V31.0749H65.075C64.9903 32.1347 64.5498 33.1346 63.825 33.9124C63.2833 34.4643 62.6318 34.8963 61.9126 35.1805C61.1935 35.4648 60.4226 35.5949 59.65 35.5624C58.0587 35.5624 56.5326 34.9303 55.4074 33.805C54.2821 32.6798 53.65 31.1537 53.65 29.5624C53.65 27.9711 54.2821 26.445 55.4074 25.3198C56.5326 24.1945 58.0587 23.5624 59.65 23.5624C61.1756 23.5397 62.6486 24.1191 63.75 25.1749L65.3375 23.5874C64.5925 22.8505 63.7079 22.2698 62.7356 21.8791C61.7632 21.4885 60.7227 21.2958 59.675 21.3124C58.5637 21.2692 57.4552 21.4507 56.4158 21.8461C55.3764 22.2415 54.4275 22.8427 53.6259 23.6137C52.8244 24.3846 52.1868 25.3094 51.7512 26.3326C51.3157 27.3559 51.0912 28.4566 51.0912 29.5686C51.0912 30.6807 51.3157 31.7814 51.7512 32.8046C52.1868 33.8279 52.8244 34.7527 53.6259 35.5236C54.4275 36.2946 55.3764 36.8958 56.4158 37.2912C57.4552 37.6866 58.5637 37.8681 59.675 37.8249C60.7443 37.8676 61.8105 37.6836 62.8036 37.2851C63.7968 36.8865 64.6944 36.2824 65.4375 35.5124C66.7501 34.0704 67.4496 32.1739 67.3875 30.2249C67.392 29.7558 67.3543 29.2873 67.275 28.8249H59.675ZM116.312 30.5749C115.987 29.6158 115.377 28.7784 114.564 28.1735C113.752 27.5685 112.775 27.2247 111.763 27.1874C111.079 27.1861 110.402 27.325 109.774 27.5956C109.146 27.8662 108.58 28.2627 108.112 28.7606C107.643 29.2585 107.282 29.8472 107.05 30.4904C106.817 31.1335 106.72 31.8175 106.763 32.4999C106.752 33.641 107.111 34.7549 107.785 35.6752C108.46 36.5956 109.414 37.273 110.505 37.6063C111.597 37.9396 112.767 37.9109 113.84 37.5245C114.914 37.1381 115.834 36.4147 116.462 35.4624L114.65 34.2124C114.38 34.6627 113.997 35.0346 113.538 35.2912C113.08 35.5477 112.563 35.68 112.037 35.6749C111.496 35.6973 110.96 35.5552 110.5 35.2674C110.041 34.9796 109.679 34.5596 109.462 34.0624L116.575 31.1249L116.312 30.5749ZM109.062 32.3499C109.037 31.9623 109.09 31.5735 109.217 31.2064C109.344 30.8393 109.543 30.5014 109.803 30.2126C110.063 29.9237 110.378 29.6897 110.729 29.5244C111.081 29.3591 111.462 29.2657 111.85 29.2499C112.251 29.2242 112.652 29.3172 113 29.5172C113.349 29.7173 113.632 30.0155 113.812 30.3749L109.062 32.3499ZM103.287 37.4999H105.625V21.8749H103.287V37.4999ZM99.4625 28.3749H99.375C99.0201 27.9886 98.5866 27.6827 98.1036 27.4779C97.6206 27.2731 97.0994 27.174 96.575 27.1874C95.209 27.2536 93.9208 27.8429 92.9775 28.8331C92.0341 29.8233 91.5079 31.1385 91.5079 32.5061C91.5079 33.8738 92.0341 35.189 92.9775 36.1792C93.9208 37.1694 95.209 37.7586 96.575 37.8249C97.105 37.8355 97.6307 37.729 98.1147 37.5129C98.5988 37.2968 99.0291 36.9765 99.375 36.5749H99.4625V37.3374C99.4625 39.3749 98.375 40.4624 96.625 40.4624C96.0404 40.4495 95.4728 40.2633 94.9943 39.9272C94.5158 39.5911 94.148 39.1204 93.9375 38.5749L91.9125 39.4124C92.2869 40.3527 92.9378 41.1573 93.7792 41.7197C94.6207 42.2821 95.613 42.576 96.625 42.5624C99.3625 42.5624 101.625 40.9499 101.625 37.0249V27.4999H99.4625V28.3749ZM96.775 35.7249C95.956 35.6738 95.1873 35.3125 94.6254 34.7145C94.0635 34.1165 93.7507 33.3267 93.7507 32.5061C93.7507 31.6856 94.0635 30.8958 94.6254 30.2978C95.1873 29.6998 95.956 29.3385 96.775 29.2874C97.1753 29.3047 97.568 29.4023 97.9298 29.5744C98.2916 29.7466 98.6151 29.9898 98.881 30.2895C99.1469 30.5892 99.3498 30.9394 99.4776 31.3191C99.6054 31.6988 99.6555 32.1004 99.625 32.4999C99.6591 32.9008 99.6115 33.3044 99.4852 33.6863C99.3589 34.0683 99.1564 34.4207 98.89 34.7221C98.6235 35.0236 98.2988 35.2679 97.9352 35.4402C97.5717 35.6126 97.177 35.7094 96.775 35.7249ZM127.262 21.8749H121.662V37.4999H124V31.5749H127.262C127.929 31.6228 128.598 31.5329 129.228 31.3108C129.857 31.0888 130.435 30.7393 130.924 30.2843C131.413 29.8292 131.803 29.2783 132.069 28.6659C132.336 28.0536 132.473 27.3928 132.473 26.7249C132.473 26.057 132.336 25.3962 132.069 24.7839C131.803 24.1715 131.413 23.6206 130.924 23.1655C130.435 22.7105 129.857 22.361 129.228 22.139C128.598 21.9169 127.929 21.827 127.262 21.8749ZM127.262 29.3749H124V24.0499H127.312C128.022 24.0499 128.702 24.3317 129.204 24.8334C129.706 25.335 129.987 26.0154 129.987 26.7249C129.987 27.4344 129.706 28.1148 129.204 28.6164C128.702 29.1181 128.022 29.3999 127.312 29.3999L127.262 29.3749ZM141.687 27.1374C140.836 27.0849 139.988 27.2831 139.248 27.7074C138.509 28.1318 137.909 28.7636 137.525 29.5249L139.587 30.3874C139.796 30.0117 140.109 29.7043 140.488 29.5024C140.867 29.3006 141.297 29.2129 141.725 29.2499C142.022 29.2152 142.322 29.24 142.609 29.3228C142.896 29.4056 143.164 29.5447 143.397 29.732C143.63 29.9194 143.823 30.1512 143.965 30.4139C144.107 30.6767 144.195 30.9651 144.225 31.2624V31.4124C143.473 31.0173 142.637 30.8113 141.787 30.8124C139.562 30.8124 137.287 32.0624 137.287 34.3374C137.31 34.8209 137.428 35.2951 137.637 35.7318C137.846 36.1685 138.141 36.5588 138.503 36.8794C138.866 37.2001 139.289 37.4446 139.748 37.5984C140.207 37.7522 140.692 37.8122 141.175 37.7749C141.762 37.8073 142.346 37.6832 142.869 37.4152C143.392 37.1472 143.834 36.7451 144.15 36.2499H144.225V37.4999H146.475V31.4874C146.475 28.7499 144.4 27.1624 141.737 27.1624L141.687 27.1374ZM141.4 35.6999C140.637 35.6999 139.575 35.3124 139.575 34.3749C139.575 33.1249 140.9 32.6999 142.075 32.6999C142.818 32.6816 143.551 32.8629 144.2 33.2249C144.122 33.9037 143.8 34.5311 143.294 34.9908C142.788 35.4505 142.133 35.7113 141.45 35.7249L141.4 35.6999ZM154.675 27.4999L152 34.2749H151.925L149.15 27.4999H146.65L150.812 36.9749L148.437 42.2374H150.937L157.275 27.4999H154.675ZM133.675 37.4999H136V21.8749H133.675V37.4999Z" fill="white"/>
<path d="M13.05 9.4249C12.6515 9.91747 12.4549 10.543 12.5 11.1749V38.8249C12.4574 39.4629 12.6686 40.0918 13.0875 40.5749L13.175 40.6749L28.625 25.1874V24.8124L13.1375 9.3374L13.05 9.4249Z" fill="url(#paint0_linear)"/>
<path d="M33.75 30.3499L28.625 25.1874V24.8124L33.75 19.6499L33.8625 19.7249L40 23.1999C41.75 24.1874 41.75 25.8124 40 26.8124L33.8875 30.2874L33.75 30.3499Z" fill="url(#paint1_linear)"/>
<path d="M33.9001 30.2875L28.6251 25L13.05 40.575C13.4033 40.8894 13.8554 41.0703 14.328 41.0863C14.8006 41.1023 15.2639 40.9523 15.6375 40.6625L33.9001 30.2875Z" fill="url(#paint2_linear)"/>
<path d="M33.9001 19.7251L15.6375 9.35008C15.2663 9.05623 14.8034 8.90266 14.3301 8.91637C13.8569 8.93009 13.4036 9.11022 13.05 9.42508L28.6251 25.0001L33.9001 19.7251Z" fill="url(#paint3_linear)"/>
<path opacity="0.2" d="M33.7501 30.1626L15.6375 40.4751C15.2775 40.7469 14.8387 40.8939 14.3875 40.8939C13.9364 40.8939 13.4976 40.7469 13.1375 40.4751L13.05 40.5626L13.1375 40.6626C13.4976 40.9344 13.9364 41.0814 14.3875 41.0814C14.8387 41.0814 15.2775 40.9344 15.6375 40.6626L33.9001 30.2876L33.7501 30.1626Z" fill="black"/>
<path opacity="0.12" d="M13.05 40.4002C12.6485 39.9044 12.4517 39.2739 12.5 38.6377V38.8252C12.4574 39.4632 12.6686 40.0921 13.0875 40.5752L13.175 40.4877L13.05 40.4002Z" fill="black"/>
<path opacity="0.12" d="M40 26.625L33.75 30.1625L33.8625 30.2875L40 26.8C40.3623 26.6468 40.6766 26.3988 40.9097 26.082C41.1429 25.7652 41.2864 25.3914 41.325 25C41.2469 25.3557 41.0862 25.6881 40.8561 25.9703C40.6259 26.2526 40.3327 26.4768 40 26.625Z" fill="black"/>
<path opacity="0.25" d="M15.6375 9.52522L40 23.3752C40.3327 23.5234 40.6259 23.7476 40.8561 24.0299C41.0862 24.3121 41.2469 24.6445 41.325 25.0002C41.2864 24.6088 41.1429 24.235 40.9097 23.9182C40.6766 23.6014 40.3623 23.3534 40 23.2002L15.6375 9.35022C13.9 8.35022 12.5 9.17522 12.5 11.1752V11.3627C12.5 9.36272 13.9 8.53772 15.6375 9.52522Z" fill="white"/>
<defs>
<linearGradient id="paint0_linear" x1="27.25" y1="10.8874" x2="6.27498" y2="31.8624" gradientUnits="userSpaceOnUse">
<stop stop-color="#00A0FF"/>
<stop offset="0.01" stop-color="#00A1FF"/>
<stop offset="0.26" stop-color="#00BEFF"/>
<stop offset="0.51" stop-color="#00D2FF"/>
<stop offset="0.76" stop-color="#00DFFF"/>
<stop offset="1" stop-color="#00E3FF"/>
</linearGradient>
<linearGradient id="paint1_linear" x1="42.2875" y1="24.9999" x2="12.05" y2="24.9999" gradientUnits="userSpaceOnUse">
<stop stop-color="#FFE000"/>
<stop offset="0.41" stop-color="#FFBD00"/>
<stop offset="0.78" stop-color="#FFA500"/>
<stop offset="1" stop-color="#FF9C00"/>
</linearGradient>
<linearGradient id="paint2_linear" x1="31.0376" y1="27.875" x2="2.58754" y2="56.3125" gradientUnits="userSpaceOnUse">
<stop stop-color="#FF3A44"/>
<stop offset="1" stop-color="#C31162"/>
</linearGradient>
<linearGradient id="paint3_linear" x1="9.12505" y1="0.225086" x2="21.825" y2="12.9251" gradientUnits="userSpaceOnUse">
<stop stop-color="#32A071"/>
<stop offset="0.07" stop-color="#2DA771"/>
<stop offset="0.48" stop-color="#15CF74"/>
<stop offset="0.8" stop-color="#06E775"/>
<stop offset="1" stop-color="#00F076"/>
</linearGradient>
</defs>
</svg>
