<svg width="150" height="50" viewBox="0 0 150 50" fill="none" xmlns="http://www.w3.org/2000/svg">
<g clip-path="url(#clip0)">
<path d="M138.055 0.0001625H11.9518C11.4921 0.0001625 11.038 0.0001625 10.5796 0.0026625C10.1958 0.0051625 9.81509 0.012425 9.42764 0.0185375C8.58593 0.0284148 7.74619 0.102258 6.91573 0.239425C6.08644 0.379578 5.28313 0.643807 4.53296 1.02318C3.78372 1.40575 3.09911 1.90287 2.50397 2.4965C1.90571 3.08846 1.40702 3.77268 1.02706 4.52286C0.646059 5.27155 0.38187 6.07384 0.243619 6.90201C0.104055 7.72914 0.028954 8.56581 0.0189907 9.40451C0.0073581 9.78776 0.00612966 10.1723 0 10.5556V39.4484C0.00612966 39.8365 0.0073581 40.2125 0.0189907 40.6008C0.0289571 41.4394 0.104058 42.2761 0.243619 43.1032C0.381488 43.9318 0.645693 44.7346 1.02706 45.4835C1.40685 46.2313 1.90561 46.9127 2.50397 47.5014C3.09685 48.0977 3.7819 48.5951 4.53296 48.9748C5.28312 49.3552 6.08635 49.621 6.91573 49.7633C7.74633 49.8994 8.58598 49.9732 9.42764 49.9843C9.81509 49.9928 10.1958 49.9977 10.5796 49.9977C11.038 50.0002 11.4922 50.0002 11.9518 50.0002H138.055C138.505 50.0002 138.963 50.0002 139.414 49.9977C139.796 49.9977 140.187 49.9928 140.569 49.9843C141.409 49.9738 142.247 49.8999 143.076 49.7633C143.908 49.62 144.715 49.3542 145.468 48.9748C146.219 48.5949 146.903 48.0975 147.495 47.5014C148.092 46.9104 148.592 46.2295 148.977 45.4835C149.355 44.734 149.617 43.9313 149.753 43.1032C149.892 42.276 149.97 41.4395 149.985 40.6008C149.99 40.2125 149.99 39.8365 149.99 39.4484C150 38.9943 150 38.5427 150 38.0812V11.9203C150 11.4626 150 11.0085 149.99 10.5556C149.99 10.1723 149.99 9.78776 149.985 9.40446C149.97 8.56569 149.892 7.72921 149.753 6.90196C149.616 6.07426 149.355 5.27204 148.977 4.52281C148.203 3.01916 146.976 1.79519 145.468 1.02306C144.715 0.644622 143.908 0.380463 143.076 0.239312C142.248 0.101541 141.409 0.0276722 140.569 0.0183625C140.187 0.0122625 139.796 0.0049375 139.414 0.0025C138.963 0 138.505 0 138.055 0V0.0001625Z" fill="#A6A6A6"/>
<path d="M10.5857 48.9062C10.2038 48.9062 9.83109 48.9014 9.45217 48.8929C8.6672 48.8827 7.88406 48.8145 7.10919 48.689C6.38665 48.5649 5.68671 48.3341 5.03245 48.0041C4.38418 47.6769 3.79292 47.2478 3.2813 46.7334C2.76227 46.225 2.33015 45.6353 2.00208 44.9878C1.67038 44.336 1.44083 43.6374 1.32142 42.9163C1.19247 42.1414 1.1227 41.3579 1.11271 40.5725C1.10476 40.3089 1.09436 39.4311 1.09436 39.4311V10.5554C1.09436 10.5554 1.10544 9.69116 1.11277 9.43725C1.12233 8.6531 1.1917 7.87082 1.32027 7.09716C1.4399 6.37406 1.66963 5.67344 2.0015 5.01954C2.32837 4.37243 2.75809 3.78233 3.27399 3.2721C3.78931 2.75703 4.38247 2.32576 5.03183 1.99401C5.68459 1.66512 6.38321 1.43592 7.10428 1.31409C7.88171 1.1873 8.66756 1.11875 9.45525 1.10901L10.5863 1.09375H139.408L140.552 1.10963C141.333 1.11887 142.111 1.18681 142.882 1.31286C143.61 1.43622 144.316 1.66702 144.976 1.99768C146.277 2.66623 147.336 3.72395 148.003 5.02259C148.33 5.67197 148.556 6.36688 148.674 7.08374C148.804 7.86374 148.877 8.65217 148.892 9.44275C148.896 9.79675 148.896 10.177 148.896 10.5554C148.906 11.0242 148.906 11.4703 148.906 11.9202V38.081C148.906 38.5351 148.906 38.9783 148.896 39.425C148.896 39.8315 148.896 40.2039 148.891 40.5871C148.876 41.3636 148.805 42.138 148.677 42.904C148.56 43.6303 148.331 44.3344 148 44.9915C147.669 45.632 147.24 46.2166 146.727 46.7236C146.215 47.2409 145.622 47.6724 144.973 48.0018C144.314 48.3342 143.609 48.5659 142.882 48.689C142.107 48.8152 141.324 48.8834 140.539 48.8929C140.172 48.9014 139.787 48.9062 139.414 48.9062L138.055 48.9087L10.5857 48.9062Z" fill="black"/>
<path d="M31.048 25.3759C31.0615 24.3326 31.3394 23.3096 31.8559 22.4022C32.3724 21.4947 33.1106 20.7323 34.002 20.1858C33.4357 19.3794 32.6887 18.7157 31.8202 18.2475C30.9518 17.7793 29.9858 17.5195 28.999 17.4887C26.8941 17.2684 24.8534 18.7448 23.7808 18.7448C22.6874 18.7448 21.0359 17.5106 19.2575 17.5471C18.1072 17.5841 16.9861 17.9177 16.0035 18.5153C15.0209 19.1129 14.2103 19.9541 13.6507 20.9569C11.2264 25.1424 13.0347 31.2938 15.3569 34.677C16.5188 36.3337 17.8767 38.1843 19.6535 38.1186C21.3922 38.0467 22.0416 37.013 24.1403 37.013C26.2196 37.013 26.8288 38.1186 28.6417 38.0769C30.5074 38.0467 31.6828 36.4129 32.804 34.7405C33.6388 33.56 34.2812 32.2554 34.7073 30.8749C33.6234 30.4177 32.6984 29.6525 32.0477 28.6746C31.397 27.6967 31.0493 26.5495 31.048 25.3759Z" fill="white"/>
<path d="M27.624 15.2637C28.6412 14.0459 29.1424 12.4807 29.021 10.9004C27.4669 11.0632 26.0313 11.8039 25.0003 12.9749C24.4962 13.547 24.1101 14.2125 23.8641 14.9335C23.6181 15.6545 23.5171 16.4167 23.5667 17.1766C24.344 17.1846 25.113 17.0166 25.8158 16.6852C26.5186 16.3539 27.1369 15.8678 27.624 15.2637Z" fill="white"/>
<path d="M53.0262 33.9246H47.0929L45.668 38.1202H43.1548L48.7748 22.5977H51.3859L57.0059 38.1202H54.4499L53.0262 33.9246ZM47.7074 31.9886H52.4105L50.092 25.1795H50.0272L47.7074 31.9886Z" fill="white"/>
<path d="M69.1431 32.4623C69.1431 35.9792 67.2555 38.2387 64.407 38.2387C63.6854 38.2763 62.9677 38.1105 62.3362 37.7604C61.7047 37.4102 61.1849 36.8898 60.8362 36.2587H60.7823V41.8641H58.4528V26.8031H60.7076V28.6854H60.7505C61.1152 28.0574 61.6438 27.5396 62.2802 27.1873C62.9165 26.835 63.6367 26.6613 64.3641 26.6847C67.2444 26.6847 69.1431 28.9552 69.1431 32.4623ZM66.7487 32.4623C66.7487 30.1711 65.5613 28.6647 63.7496 28.6647C61.9697 28.6647 60.7725 30.2028 60.7725 32.4623C60.7725 34.7426 61.9697 36.2697 63.7496 36.2697C65.5613 36.2697 66.7487 34.7743 66.7487 32.4623Z" fill="white"/>
<path d="M81.6342 32.4623C81.6342 35.9791 79.7465 38.2387 76.898 38.2387C76.1764 38.2763 75.4588 38.1105 74.8273 37.7604C74.1958 37.4102 73.6759 36.8898 73.3272 36.2587H73.2733V41.8641H70.9438V26.8031H73.1986V28.6854H73.2415C73.6062 28.0573 74.1348 27.5396 74.7712 27.1873C75.4075 26.835 76.1277 26.6613 76.8551 26.6847C79.7355 26.6847 81.6342 28.9552 81.6342 32.4623ZM79.2398 32.4623C79.2398 30.171 78.0523 28.6647 76.2406 28.6647C74.4607 28.6647 73.2635 30.2028 73.2635 32.4623C73.2635 34.7426 74.4607 36.2697 76.2406 36.2697C78.0524 36.2697 79.2398 34.7743 79.2398 32.4623H79.2398Z" fill="white"/>
<path d="M89.8897 33.7952C90.0623 35.3345 91.5619 36.3452 93.6111 36.3452C95.5746 36.3452 96.9872 35.3345 96.9872 33.9465C96.9872 32.7417 96.1352 32.0203 94.1179 31.5259L92.1005 31.0413C89.2422 30.3528 87.9152 29.0198 87.9152 26.8567C87.9152 24.1785 90.2557 22.3389 93.5792 22.3389C96.8685 22.3389 99.1233 24.1785 99.1992 26.8567H96.8476C96.7069 25.3076 95.4228 24.3726 93.5462 24.3726C91.6696 24.3726 90.3855 25.3186 90.3855 26.6956C90.3855 27.793 91.2056 28.4387 93.212 28.9331L94.927 29.353C98.1207 30.1062 99.4477 31.3855 99.4477 33.656C99.4477 36.56 97.128 38.3789 93.4384 38.3789C89.9864 38.3789 87.6556 36.6027 87.5051 33.7951L89.8897 33.7952Z" fill="white"/>
<path d="M104.475 24.125V26.8032H106.633V28.6428H104.475V34.8818C104.475 35.8511 104.907 36.3027 105.856 36.3027C106.112 36.2983 106.368 36.2803 106.622 36.249V38.0776C106.196 38.1571 105.762 38.1931 105.328 38.185C103.031 38.185 102.135 37.3244 102.135 35.1296V28.6428H100.484V26.8032H102.135V24.125H104.475Z" fill="white"/>
<path d="M107.883 32.4624C107.883 28.9016 109.986 26.6641 113.266 26.6641C116.556 26.6641 118.649 28.9016 118.649 32.4624C118.649 36.033 116.567 38.2607 113.266 38.2607C109.965 38.2607 107.883 36.0329 107.883 32.4624ZM116.276 32.4624C116.276 30.0198 115.153 28.5781 113.266 28.5781C111.378 28.5781 110.257 30.0308 110.257 32.4624C110.257 34.9148 111.378 36.3455 113.266 36.3455C115.153 36.3455 116.276 34.9148 116.276 32.4624H116.276Z" fill="white"/>
<path d="M120.57 26.803H122.792V28.7293H122.846C122.996 28.1277 123.35 27.596 123.847 27.2236C124.344 26.8513 124.954 26.6609 125.576 26.6846C125.844 26.6836 126.112 26.7127 126.374 26.7713V28.9441C126.035 28.8408 125.681 28.7934 125.327 28.8037C124.989 28.79 124.651 28.8495 124.338 28.9782C124.025 29.1068 123.743 29.3014 123.513 29.5488C123.282 29.7962 123.108 30.0904 123.002 30.4112C122.896 30.732 122.861 31.0719 122.9 31.4075V38.1201H120.57L120.57 26.803Z" fill="white"/>
<path d="M137.114 34.7964C136.801 36.8508 134.794 38.2607 132.227 38.2607C128.926 38.2607 126.877 36.0549 126.877 32.5161C126.877 28.9663 128.937 26.6641 132.13 26.6641C135.269 26.6641 137.244 28.8149 137.244 32.2463V33.0422H129.228V33.1826C129.191 33.5991 129.244 34.0187 129.382 34.4135C129.52 34.8083 129.741 35.1693 130.029 35.4725C130.318 35.7756 130.668 36.0141 131.057 36.172C131.445 36.3299 131.862 36.4036 132.281 36.3882C132.832 36.4396 133.384 36.3125 133.856 36.0257C134.329 35.7389 134.695 35.3077 134.902 34.7964L137.114 34.7964ZM129.239 31.4187H134.913C134.934 31.0442 134.877 30.6694 134.746 30.3179C134.615 29.9664 134.412 29.6457 134.151 29.376C133.889 29.1063 133.575 28.8934 133.227 28.7506C132.879 28.6079 132.506 28.5383 132.13 28.5464C131.75 28.5441 131.374 28.6168 131.023 28.7602C130.672 28.9037 130.353 29.115 130.084 29.382C129.816 29.6491 129.603 29.9665 129.458 30.3161C129.313 30.6657 129.238 31.0404 129.239 31.4187V31.4187Z" fill="white"/>
<path d="M47.4155 10.9137C47.9038 10.8788 48.3939 10.9524 48.8503 11.1292C49.3068 11.3059 49.7181 11.5815 50.0548 11.9361C50.3915 12.2906 50.6451 12.7152 50.7972 13.1793C50.9494 13.6434 50.9964 14.1354 50.9348 14.6198C50.9348 17.0026 49.6434 18.3723 47.4155 18.3723H44.7138V10.9137H47.4155ZM45.8755 17.3175H47.2857C47.6347 17.3383 47.9839 17.2812 48.308 17.1505C48.6321 17.0197 48.9228 16.8185 49.1591 16.5616C49.3954 16.3046 49.5712 15.9983 49.6739 15.6651C49.7765 15.3318 49.8033 14.9799 49.7523 14.635C49.7996 14.2914 49.7701 13.9417 49.6659 13.6109C49.5617 13.2801 49.3854 12.9763 49.1497 12.7214C48.9139 12.4665 48.6246 12.2667 48.3023 12.1364C47.9801 12.0061 47.6329 11.9485 47.2857 11.9677H45.8755V17.3175Z" fill="white"/>
<path d="M52.247 15.5557C52.2115 15.1858 52.254 14.8126 52.3716 14.46C52.4892 14.1074 52.6795 13.7833 52.9301 13.5083C53.1807 13.2333 53.4862 13.0136 53.827 12.8633C54.1678 12.7129 54.5363 12.6353 54.9089 12.6353C55.2815 12.6353 55.65 12.7129 55.9908 12.8633C56.3316 13.0136 56.6371 13.2333 56.8877 13.5083C57.1383 13.7833 57.3286 14.1074 57.4462 14.46C57.5638 14.8126 57.6063 15.1858 57.5708 15.5557C57.6069 15.926 57.565 16.2997 57.4477 16.6529C57.3304 17.006 57.1403 17.3308 56.8896 17.6063C56.6389 17.8819 56.3331 18.102 55.992 18.2527C55.6509 18.4034 55.282 18.4812 54.9089 18.4812C54.5358 18.4812 54.1669 18.4034 53.8258 18.2527C53.4847 18.102 53.1789 17.8819 52.9282 17.6063C52.6775 17.3308 52.4874 17.006 52.3701 16.6529C52.2528 16.2997 52.2109 15.926 52.247 15.5557ZM56.425 15.5557C56.425 14.3356 55.8753 13.6221 54.9107 13.6221C53.9424 13.6221 53.3977 14.3356 53.3977 15.5557C53.3977 16.7856 53.9425 17.4936 54.9107 17.4936C55.8754 17.4936 56.425 16.7807 56.425 15.5557H56.425Z" fill="white"/>
<path d="M64.6476 18.3723H63.492L62.3254 14.2268H62.2373L61.0756 18.3723H59.931L58.3751 12.7437H59.505L60.5161 17.0387H60.5994L61.7599 12.7437H62.8285L63.989 17.0387H64.0771L65.0834 12.7437H66.1973L64.6476 18.3723Z" fill="white"/>
<path d="M67.5059 12.7436H68.5782V13.6377H68.6614C68.8027 13.3166 69.0408 13.0474 69.3428 12.8676C69.6447 12.6879 69.9953 12.6065 70.3458 12.6349C70.6205 12.6143 70.8963 12.6556 71.1527 12.7558C71.4092 12.8559 71.6398 13.0123 71.8274 13.2133C72.015 13.4144 72.1549 13.6549 72.2366 13.9172C72.3184 14.1795 72.3399 14.4567 72.2995 14.7284V18.3722H71.1856V15.0074C71.1856 14.1028 70.7914 13.653 69.9676 13.653C69.7811 13.6444 69.595 13.676 69.4219 13.7458C69.2489 13.8156 69.093 13.9219 68.965 14.0573C68.837 14.1928 68.7398 14.3543 68.6803 14.5307C68.6207 14.7071 68.6001 14.8943 68.6198 15.0794V18.3722H67.5059L67.5059 12.7436Z" fill="white"/>
<path d="M74.0746 10.5464H75.1885V18.3723H74.0746V10.5464Z" fill="white"/>
<path d="M76.737 15.5553C76.7015 15.1854 76.744 14.8122 76.8616 14.4596C76.9793 14.107 77.1696 13.7828 77.4202 13.5078C77.6709 13.2328 77.9764 13.0131 78.3172 12.8628C78.658 12.7124 79.0265 12.6348 79.3992 12.6348C79.7718 12.6348 80.1404 12.7124 80.4811 12.8628C80.8219 13.0131 81.1275 13.2328 81.3781 13.5078C81.6288 13.7828 81.819 14.107 81.9367 14.4596C82.0543 14.8122 82.0968 15.1854 82.0613 15.5553C82.0975 15.9256 82.0555 16.2994 81.9381 16.6525C81.8208 17.0057 81.6306 17.3304 81.3799 17.606C81.1292 17.8815 80.8234 18.1016 80.4823 18.2523C80.1412 18.4029 79.7723 18.4808 79.3992 18.4808C79.0261 18.4808 78.6571 18.4029 78.316 18.2523C77.9749 18.1016 77.6691 17.8815 77.4184 17.606C77.1677 17.3304 76.9776 17.0057 76.8602 16.6525C76.7428 16.2994 76.7009 15.9256 76.737 15.5553ZM80.9149 15.5553C80.9149 14.3353 80.3653 13.6218 79.4007 13.6218C78.4324 13.6218 77.8877 14.3353 77.8877 15.5554C77.8877 16.7852 78.4324 17.4932 79.4007 17.4932C80.3653 17.4932 80.9149 16.7803 80.9149 15.5553H80.9149Z" fill="white"/>
<path d="M83.2341 16.7808C83.2341 15.7676 83.9906 15.1835 85.3335 15.1005L86.8625 15.0126V14.5267C86.8625 13.9322 86.4683 13.5966 85.7069 13.5966C85.085 13.5966 84.6541 13.8242 84.5305 14.2222H83.452C83.5659 13.2554 84.4779 12.6353 85.7583 12.6353C87.1734 12.6353 87.9715 13.3378 87.9715 14.5267V18.3726H86.8992V17.5815H86.811C86.6321 17.8653 86.3809 18.0966 86.0831 18.2519C85.7852 18.4071 85.4514 18.4808 85.1156 18.4653C84.8787 18.4899 84.6392 18.4647 84.4126 18.3913C84.186 18.3179 83.9773 18.198 83.8001 18.0393C83.6228 17.8806 83.4809 17.6866 83.3834 17.4698C83.2859 17.2531 83.2351 17.0183 83.2341 16.7808ZM86.8625 16.2998V15.8292L85.4841 15.9171C84.7068 15.969 84.3542 16.2327 84.3542 16.7289C84.3542 17.2355 84.7949 17.5303 85.4009 17.5303C85.5784 17.5482 85.7578 17.5303 85.9283 17.4777C86.0988 17.4251 86.2569 17.3388 86.3932 17.224C86.5296 17.1092 86.6414 16.9682 86.722 16.8094C86.8026 16.6507 86.8504 16.4773 86.8625 16.2998Z" fill="white"/>
<path d="M89.4355 15.5556C89.4355 13.777 90.3524 12.6503 91.7785 12.6503C92.1313 12.6341 92.4814 12.7183 92.7879 12.8932C93.0944 13.0681 93.3447 13.3263 93.5095 13.6378H93.5927V10.5464H94.7066V18.3723H93.6392V17.483H93.5511C93.3736 17.7924 93.1146 18.0474 92.8021 18.2205C92.4897 18.3936 92.1357 18.4782 91.7785 18.4651C90.3426 18.4651 89.4355 17.3384 89.4355 15.5556ZM90.5863 15.5556C90.5863 16.7494 91.1506 17.4678 92.0944 17.4678C93.0333 17.4678 93.6135 16.739 93.6135 15.5604C93.6135 14.3873 93.0272 13.6482 92.0944 13.6482C91.1567 13.6482 90.5862 14.3715 90.5862 15.5556H90.5863Z" fill="white"/>
<path d="M99.3154 15.5557C99.28 15.1858 99.3224 14.8126 99.44 14.46C99.5577 14.1074 99.7479 13.7833 99.9985 13.5083C100.249 13.2333 100.555 13.0136 100.895 12.8633C101.236 12.7129 101.605 12.6353 101.977 12.6353C102.35 12.6353 102.718 12.7129 103.059 12.8633C103.4 13.0136 103.705 13.2333 103.956 13.5083C104.207 13.7833 104.397 14.1074 104.515 14.46C104.632 14.8126 104.675 15.1858 104.639 15.5557C104.675 15.926 104.633 16.2997 104.516 16.6529C104.399 17.006 104.209 17.3308 103.958 17.6063C103.707 17.8819 103.402 18.102 103.06 18.2527C102.719 18.4034 102.35 18.4812 101.977 18.4812C101.604 18.4812 101.235 18.4034 100.894 18.2527C100.553 18.102 100.247 17.8819 99.9967 17.6063C99.746 17.3308 99.5558 17.006 99.4385 16.6529C99.3212 16.2997 99.2793 15.926 99.3154 15.5557ZM103.493 15.5557C103.493 14.3356 102.944 13.6221 101.979 13.6221C101.011 13.6221 100.466 14.3356 100.466 15.5557C100.466 16.7856 101.011 17.4936 101.979 17.4936C102.944 17.4936 103.493 16.7807 103.493 15.5557Z" fill="white"/>
<path d="M106.134 12.7436H107.206V13.6377H107.29C107.431 13.3166 107.669 13.0474 107.971 12.8676C108.273 12.6879 108.623 12.6065 108.974 12.6349C109.249 12.6143 109.524 12.6556 109.781 12.7558C110.037 12.8559 110.268 13.0123 110.455 13.2133C110.643 13.4144 110.783 13.6549 110.865 13.9172C110.946 14.1795 110.968 14.4567 110.928 14.7284V18.3722H109.814V15.0074C109.814 14.1028 109.419 13.653 108.596 13.653C108.409 13.6444 108.223 13.676 108.05 13.7458C107.877 13.8156 107.721 13.9219 107.593 14.0573C107.465 14.1928 107.368 14.3543 107.308 14.5307C107.249 14.7071 107.228 14.8943 107.248 15.0794V18.3722H106.134V12.7436Z" fill="white"/>
<path d="M117.222 11.3423V12.7693H118.445V13.705H117.222V16.5992C117.222 17.1888 117.466 17.447 118.02 17.447C118.162 17.4466 118.304 17.438 118.445 17.4214V18.3467C118.245 18.3824 118.042 18.4013 117.839 18.4034C116.6 18.4034 116.107 17.9689 116.107 16.8837V13.7049H115.211V12.7692H116.107V11.3423H117.222Z" fill="white"/>
<path d="M119.967 10.5464H121.071V13.6482H121.159C121.307 13.324 121.552 13.0533 121.86 12.8729C122.168 12.6924 122.524 12.6111 122.88 12.6399C123.153 12.6251 123.426 12.6706 123.68 12.7731C123.933 12.8757 124.161 13.0328 124.347 13.2332C124.532 13.4336 124.671 13.6724 124.754 13.9326C124.836 14.1928 124.86 14.4679 124.824 14.7383V18.3723H123.709V15.0123C123.709 14.1133 123.289 13.6579 122.502 13.6579C122.31 13.6423 122.118 13.6685 121.938 13.7349C121.757 13.8012 121.594 13.906 121.458 14.0419C121.323 14.1778 121.219 14.3416 121.154 14.5217C121.089 14.7019 121.064 14.8941 121.081 15.0849V18.3723H119.967L119.967 10.5464Z" fill="white"/>
<path d="M131.319 16.8524C131.168 17.3668 130.84 17.8118 130.393 18.1095C129.946 18.4072 129.408 18.5386 128.873 18.4808C128.502 18.4906 128.132 18.4196 127.79 18.2726C127.449 18.1257 127.143 17.9065 126.895 17.63C126.647 17.3536 126.462 17.0267 126.354 16.6719C126.245 16.3171 126.215 15.943 126.266 15.5755C126.216 15.2069 126.247 14.832 126.355 14.4762C126.464 14.1203 126.648 13.7919 126.894 13.513C127.141 13.2342 127.445 13.0115 127.786 12.86C128.126 12.7085 128.496 12.6317 128.869 12.6349C130.439 12.6349 131.387 13.7049 131.387 15.4724V15.86H127.401V15.9222C127.383 16.1288 127.409 16.3367 127.477 16.5326C127.545 16.7286 127.653 16.9082 127.795 17.06C127.936 17.2118 128.108 17.3325 128.299 17.4142C128.49 17.496 128.696 17.537 128.904 17.5347C129.17 17.5666 129.44 17.5188 129.68 17.3973C129.919 17.2758 130.116 17.0861 130.247 16.8523L131.319 16.8524ZM127.401 15.0384H130.252C130.266 14.8495 130.24 14.6598 130.176 14.4814C130.112 14.303 130.012 14.1399 129.881 14.0025C129.75 13.8652 129.592 13.7567 129.416 13.684C129.241 13.6113 129.052 13.576 128.862 13.5803C128.67 13.5779 128.478 13.614 128.3 13.6864C128.122 13.7588 127.959 13.8661 127.823 14.002C127.687 14.1379 127.579 14.2996 127.507 14.4776C127.434 14.6556 127.398 14.8463 127.401 15.0384H127.401Z" fill="white"/>
</g>
<defs>
<clipPath id="clip0">
<path d="M0 0H150V50H0V0Z" fill="white"/>
</clipPath>
</defs>
</svg>
